:FULLY-SPECIFIED
:FORCE-ALL-JOINTS-BE-3DOF
:DEGREES
65
root 8.87051 16.0706 -27.6563 5.65822 -8.1627 -1.42631
lfemur -28.0141 4.58591 -20.6465
ltibia 31.0491 -0 0
lfoot -8.26374 8.31 -0.0776027
ltoes -2.20635 0 0
rfemur -2.89596 4.26409 21.7539
rtibia 34.4285 -0 0
rfoot -10.684 -6.64695 0.425022
rtoes -18.6709 0 0
lowerback -6.66431 -0.187769 -1.04536
upperback -1.38544 -0.277669 3.21159
thorax 2.37759 -0.150347 3.93503
lowerneck -21.8427 -4.29333 -12.0315
upperneck 18.0387 -5.08881 13.1477
head 10.0228 -1.7116 5.94709
lclavicle -2.00524e-14 3.18055e-15 0
lhumerus -34.5466 -10.5488 89.434
lradius 25.2472 -0 0
lwrist 0.99058 0 0
lhand -2.70618 -20.5398 0.201196
lfingers 7.12502 -0 0
lthumb 22.9746 7.87873 0.117985
rclavicle -2.00524e-14 3.18055e-15 0
rhumerus -44.6384 16.4497 -91.0941
rradius 47.0807 -0 0
rwrist -23.9607 0 0
rhand -30.7597 -28.1816 0.00387347
rfingers 7.12502 -0 0
rthumb -4.05109 -58.1228 0.00374076
66
root 8.89568 16.088 -27.5266 5.57042 -8.1265 -1.2073
lfemur -27.3178 4.44275 -21.0053
ltibia 30.844 -0 0
lfoot -8.66109 8.36414 -0.0764762
ltoes -2.13605 0 0
rfemur -4.05631 4.12647 21.527
rtibia 35.9254 -0 0
rfoot -11.0399 -6.97826 0.418847
rtoes -18.237 0 0
lowerback -6.57478 -0.246748 -1.2037
upperback -1.39232 -0.343531 3.17555
thorax 2.32541 -0.183407 3.98053
lowerneck -21.8713 -4.27608 -12.0117
upperneck 18.1339 -5.06074 13.0805
head 10.0545 -1.70368 5.92645
lclavicle -2.00524e-14 3.18055e-15 0
lhumerus -34.1208 -10.6935 89.3162
lradius 25.3379 -0 0
lwrist 1.04326 0 0
lhand -3.11567 -20.676 0.198274
lfingers 7.12502 -0 0
lthumb 22.5822 7.79538 0.116272
rclavicle -2.00524e-14 3.18055e-15 0
rhumerus -44.5918 16.3014 -90.9763
rradius 46.6884 -0 0
rwrist -23.8367 0 0
rhand -30.7558 -27.905 0.00381729
rfingers 7.12502 -0 0
rthumb -4.04734 -57.8463 0.00368651
67
root 8.92085 16.1055 -27.3968 5.48276 -8.08997 -0.988375
lfemur -26.6209 4.30395 -21.3657
ltibia 30.639 -0 0
lfoot -9.05843 8.41827 -0.0749742
ltoes -2.06576 0 0
rfemur -5.2159 3.9843 21.3029
rtibia 37.4223 -0 0
rfoot -11.3958 -7.30951 0.410614
rtoes -17.8031 0 0
lowerback -6.48508 -0.305478 -1.36213
upperback -1.39916 -0.409397 3.13952
thorax 2.2732 -0.216425 4.02605
lowerneck -21.8998 -4.25882 -11.9919
upperneck 18.229 -5.03256 13.0134
head 10.0862 -1.69574 5.90581
lclavicle -2.00524e-14 3.18055e-15 0
lhumerus -33.6944 -10.8373 89.1972
lradius 25.4285 -0 0
lwrist 1.09595 0 0
lhand -3.52516 -20.8122 0.194379
lfingers 7.12502 -0 0
lthumb 22.1898 7.71204 0.113988
rclavicle -2.00524e-14 3.18055e-15 0
rhumerus -44.5455 16.153 -90.8587
rradius 46.2961 -0 0
rwrist -23.7127 0 0
rhand -30.7519 -27.6284 0.00374239
rfingers 7.12502 -0 0
rthumb -4.0436 -57.5698 0.00361417
68
root 8.94602 16.1229 -27.2671 5.39526 -8.05311 -0.769524
lfemur -25.9231 4.16954 -21.7277
ltibia 30.4339 -0 0
lfoot -9.45578 8.47239 -0.0730968
ltoes -1.99546 0 0
rfemur -6.37473 3.83763 21.0818
rtibia 38.9192 -0 0
rfoot -11.7516 -7.64071 0.400325
rtoes -17.3692 0 0
lowerback -6.39523 -0.363961 -1.52065
upperback -1.40595 -0.475267 3.1035
thorax 2.22097 -0.249402 4.07161
lowerneck -21.9283 -4.24155 -11.972
upperneck 18.324 -5.00426 12.9463
head 10.1179 -1.6878 5.88517
lclavicle -2.00524e-14 3.18055e-15 0
lhumerus -33.2676 -10.9803 89.077
lradius 25.5191 -0 0
lwrist 1.14863 0 0
lhand -3.93463 -20.9484 0.189511
lfingers 7.12502 -0 0
lthumb 21.7974 7.62872 0.111134
rclavicle -2.00524e-14 3.18055e-15 0
rhumerus -44.4996 16.0045 -90.7413
rradius 45.9038 -0 0
rwrist -23.5888 0 0
rhand -30.7481 -27.3519 0.00364875
rfingers 7.12502 -0 0
rthumb -4.03985 -57.2933 0.00352374
69
root 8.97119 16.1404 -27.1374 5.3079 -8.01591 -0.55075
lfemur -25.2247 4.03953 -22.0913
ltibia 30.2289 -0 0
lfoot -9.85312 8.5265 -0.0708442
ltoes -1.92516 0 0
rfemur -7.53278 3.68653 20.8637
rtibia 40.4161 -0 0
rfoot -12.1073 -7.97184 0.387979
rtoes -16.9353 0 0
lowerback -6.30521 -0.422194 -1.67927
upperback -1.41271 -0.541142 3.06748
thorax 2.1687 -0.282338 4.1172
lowerneck -21.9569 -4.22427 -11.9522
upperneck 18.4191 -4.97586 12.8793
head 10.1496 -1.67984 5.86454
lclavicle -2.00524e-14 3.18055e-15 0
lhumerus -32.8402 -11.1224 88.9557
lradius 25.6097 -0 0
lwrist 1.20132 0 0
lhand -4.34409 -21.0845 0.183669
lfingers 7.12502 -0 0
lthumb 21.405 7.54543 0.107709
rclavicle -2.00524e-14 3.18055e-15 0
rhumerus -44.4541 15.8559 -90.6241
rradius 45.5116 -0 0
rwrist -23.4648 0 0
rhand -30.7442 -27.0753 0.0035364
rfingers 7.12502 -0 0
rthumb -4.0361 -57.0167 0.00341524
